<?xml version="1.0" standalone="no"?><!DOCTYPE svg PUBLIC "-//W3C//DTD SVG 1.1//EN" "http://www.w3.org/Graphics/SVG/1.1/DTD/svg11.dtd"><svg class="icon" width="200px" height="200.00px" viewBox="0 0 1024 1024" version="1.1" xmlns="http://www.w3.org/2000/svg"><path fill="#333333" d="M188.8 1020c-4 0-8-1.6-11.2-4.8L8.8 846.4c-3.2-3.2-4.8-7.2-4.8-11.2 0-4 1.6-8 4.8-11.2l196.8-196.8c8-8 11.2-19.2 7.2-28.8-20-55.2-1.6-115.2 46.4-149.6C282.4 432 312 424 340.8 425.6c15.2 0.8 28.8 9.6 36.8 23.2 2.4 4.8 5.6 8.8 8 13.6 5.6 8 11.2 15.2 18.4 21.6 9.6 9.6 20.8 18.4 33.6 25.6 4.8 3.2 11.2 4.8 19.2 5.6 36.8 3.2 52 31.2 53.6 54.4 0.8 6.4 1.6 12 4 16 7.2 12.8 16 24.8 26.4 35.2 6.4 6.4 13.6 12.8 21.6 18.4 4 3.2 8.8 5.6 13.6 8 13.6 7.2 22.4 21.6 23.2 36.8 1.6 29.6-6.4 58.4-23.2 81.6-34.4 48-94.4 66.4-149.6 46.4-9.6-3.2-20.8-0.8-28.8 7.2L200 1015.2c-3.2 3.2-7.2 4.8-11.2 4.8zM42.4 835.2l146.4 146.4 185.6-185.6c16.8-16.8 41.6-22.4 62.4-14.4 41.6 15.2 86.4 0.8 112.8-35.2 12.8-17.6 19.2-39.2 17.6-61.6 0-4-3.2-8-7.2-10.4-5.6-3.2-11.2-6.4-16-10.4-9.6-6.4-18.4-13.6-25.6-21.6-12.8-12.8-23.2-26.4-31.2-41.6-4.8-8-7.2-17.6-8-28.8-0.8-8.8-4.8-24-24.8-25.6-12-0.8-22.4-4-32-9.6-14.4-8-28-18.4-40-30.4-8-8-15.2-16.8-21.6-26.4-3.2-4.8-7.2-10.4-10.4-16-2.4-4-6.4-6.4-10.4-7.2-22.4-1.6-44 4.8-61.6 17.6-36 25.6-50.4 71.2-35.2 112.8 8 21.6 1.6 45.6-14.4 62.4L42.4 835.2zM188.8 921.6c-2.4 0-4-0.8-5.6-2.4-3.2-3.2-3.2-8 0-11.2l152-151.2c21.6-21.6 52-34.4 82.4-34.4 4.8 0 8 3.2 8 8s-3.2 8-8 8c-26.4 0-52.8 11.2-71.2 29.6l-152 151.2c-1.6 1.6-3.2 2.4-5.6 2.4zM663.2 625.6c-25.6 0-51.2-7.2-72.8-22.4-33.6-24-54.4-60.8-55.2-101.6 0-7.2-5.6-12-12.8-12.8-40.8-1.6-77.6-21.6-101.6-55.2-30.4-44-30.4-104 0.8-148 34.4-47.2 93.6-66.4 148-47.2 10.4 4 21.6 1.6 28.8-5.6l225.6-224c6.4-6.4 16-6.4 22.4 0l168.8 168.8c3.2 3.2 4.8 7.2 4.8 11.2s-1.6 8-4.8 11.2L790.4 424.8c-7.2 7.2-9.6 18.4-5.6 28.8 19.2 54.4 0.8 114.4-47.2 148-21.6 16.8-48 24-74.4 24zM526.4 264c-30.4 0-60 14.4-79.2 40.8-23.2 32.8-24 77.6-0.8 110.4 17.6 25.6 45.6 40.8 76 41.6 23.2 0.8 42.4 20 43.2 43.2 0.8 30.4 16 58.4 41.6 76 34.4 24 79.2 24 112 0 36-25.6 49.6-70.4 35.2-111.2-8-22.4-2.4-46.4 13.6-62.4l213.6-213.6-146.4-146.4L621.6 256c-16 16-40 21.6-62.4 13.6-10.4-4-21.6-5.6-32.8-5.6zM709.6 488.8c-3.2 0-6.4-2.4-7.2-5.6-15.2-43.2-4.8-88.8 26.4-120.8l179.2-179.2c3.2-3.2 8-3.2 11.2 0 3.2 3.2 3.2 8 0 11.2L740 374.4c-27.2 27.2-36 67.2-23.2 104 1.6 4-0.8 8.8-4.8 10.4h-2.4z" /></svg>