<?xml version="1.0" standalone="no"?><!DOCTYPE svg PUBLIC "-//W3C//DTD SVG 1.1//EN" "http://www.w3.org/Graphics/SVG/1.1/DTD/svg11.dtd"><svg class="icon" width="200px" height="200.00px" viewBox="0 0 1024 1024" version="1.1" xmlns="http://www.w3.org/2000/svg"><path fill="#333333" d="M375.2 1020c-62.4 0-113.6-52-120-118.4-8.8 2.4-17.6 3.2-27.2 3.2-61.6 0-112.8-50.4-119.2-116C49.6 780.8 4 725.6 4 659.2c0-26.4 7.2-52.8 21.6-74.4-13.6-21.6-21.6-48-21.6-74.4 0-26.4 7.2-52 20.8-73.6C11.2 415.2 4 389.6 4 363.2c0-66.4 45.6-121.6 104.8-129.6 7.2-64.8 57.6-116 119.2-116 9.6 0 18.4 0.8 27.2 3.2 5.6-66.4 57.6-118.4 120-118.4 66.4 0 120 58.4 120 130.4v754.4c0.8 74.4-53.6 132.8-120 132.8zM272 863.2c3.2 0 6.4 0.8 8.8 2.4 4.8 3.2 7.2 8.8 7.2 14.4 0 3.2-0.8 6.4-0.8 8.8 0 54.4 39.2 98.4 88 98.4s88-44 88-98.4V134.4C464 80 424 36 375.2 36s-88 44-88 98.4c0 3.2 0 6.4 0.8 8.8 0.8 5.6-2.4 11.2-7.2 14.4-4.8 3.2-11.2 4-16 0.8-11.2-5.6-23.2-8.8-36-8.8-48.8 0-88 44-88 98.4 0 8.8-7.2 16-16 16-48.8 0-88 44-88 98.4 0 23.2 7.2 45.6 20.8 64 4 5.6 4 13.6 0 19.2-13.6 17.6-20.8 40.8-20.8 64 0 24 8 46.4 21.6 64.8 4.8 5.6 4.8 13.6 0 19.2-13.6 17.6-21.6 40.8-21.6 64.8 0 54.4 39.2 98.4 88 98.4 8.8 0 16 7.2 16 16 0 54.4 39.2 98.4 88 98.4 12 0 24.8-3.2 36-8.8 1.6 0.8 4 0.8 7.2 0.8zM272.8 888.8c-1.6 0-4-0.8-5.6-2.4-3.2-3.2-3.2-8 0-11.2 23.2-24 29.6-59.2 35.2-99.2l5.6-40c0.8-4 4.8-7.2 8.8-7.2 4 0.8 7.2 4.8 7.2 8.8l-5.6 40c-6.4 42.4-12.8 80-39.2 108-1.6 2.4-4 3.2-6.4 3.2zM120.8 785.6c-1.6 0-3.2-0.8-4.8-1.6-3.2-2.4-4-8-1.6-11.2 32-41.6 70.4-68.8 109.6-78.4 13.6-3.2 28-4.8 40.8-5.6 17.6-1.6 36.8-2.4 55.2 0 20.8 3.2 39.2 11.2 52.8 22.4 3.2 3.2 4 8 0.8 11.2-3.2 3.2-8 4-11.2 0.8-11.2-9.6-26.4-16-44.8-18.4-16.8-2.4-35.2-1.6-52 0-12.8 0.8-25.6 2.4-38.4 4.8-45.6 11.2-80 45.6-100.8 72.8-0.8 2.4-3.2 3.2-5.6 3.2zM84.8 593.6c-14.4 0-28-0.8-41.6-1.6-4.8 0-8-4-7.2-8.8 0-4.8 4-8 8.8-7.2 28.8 2.4 58.4 4 86.4-3.2 24-6.4 44.8-20 66.4-34.4 11.2-7.2 23.2-15.2 36-21.6 4-2.4 8.8-0.8 11.2 3.2 2.4 4 0.8 8.8-3.2 11.2-12 6.4-23.2 13.6-35.2 21.6-22.4 14.4-44.8 28.8-71.2 36-16 3.2-33.6 4.8-50.4 4.8zM342.4 510.4c-2.4 0-4.8-0.8-6.4-3.2-16.8-20-40-32.8-60.8-44-16-8-34.4-16.8-55.2-21.6-20.8-4.8-43.2-5.6-64.8-4.8-36.8 0.8-73.6 3.2-109.6 8-4 0.8-8.8-2.4-8.8-7.2-0.8-4 2.4-8.8 7.2-8.8 36.8-4.8 74.4-8 111.2-8 22.4 0 45.6 0 68.8 5.6 22.4 5.6 43.2 15.2 58.4 23.2 21.6 11.2 47.2 25.6 65.6 47.2 3.2 3.2 2.4 8.8-0.8 11.2-0.8 1.6-2.4 2.4-4.8 2.4zM318.4 322.4c-40 0-79.2-5.6-116.8-17.6-19.2-5.6-33.6-12-45.6-19.2-14.4-8.8-27.2-20-38.4-33.6-2.4-3.2-2.4-8.8 1.6-11.2 3.2-2.4 8.8-2.4 11.2 1.6 9.6 12 20.8 21.6 33.6 29.6 11.2 6.4 24.8 12 42.4 17.6 42.4 12.8 86.4 18.4 130.4 16 4 0 8 3.2 8 8s-3.2 8-8 8c-5.6 0.8-12 0.8-18.4 0.8zM304 274.4c-4 0-8-3.2-8-8-0.8-35.2-9.6-71.2-24-103.2l-0.8-2.4c-3.2-6.4-5.6-12.8-7.2-20-0.8-4 2.4-8.8 6.4-9.6 4-0.8 8.8 2.4 9.6 6.4 0.8 5.6 3.2 10.4 5.6 16l0.8 2.4c16 33.6 24.8 72 25.6 108.8 0 6.4-3.2 9.6-8 9.6zM394.4 551.2h-0.8c-4-0.8-7.2-4.8-7.2-8.8 4.8-40.8-6.4-82.4-30.4-116-24-32.8-60.8-56-100.8-64-4-0.8-7.2-4.8-6.4-9.6 0.8-4 4.8-7.2 9.6-6.4 44 8.8 84.8 34.4 111.2 70.4 26.4 36 38.4 82.4 33.6 127.2-1.6 4-4.8 7.2-8.8 7.2zM429.6 788.8c-4 0-7.2-2.4-8-6.4-4-17.6-8.8-35.2-12.8-52-5.6-22.4-11.2-42.4-23.2-59.2-18.4-25.6-50.4-39.2-77.6-50.4l-23.2-9.6c-4-1.6-5.6-6.4-4-10.4 1.6-4 6.4-5.6 10.4-4l23.2 9.6c28 12 63.2 27.2 84.8 56 13.6 18.4 20 40 25.6 64.8 4.8 17.6 8.8 35.2 12.8 52.8 0.8 4-1.6 8.8-5.6 9.6-0.8-0.8-1.6-0.8-2.4-0.8zM408 240.8c-4 0-8-3.2-8-8-0.8-52.8-15.2-104-42.4-148.8-2.4-4-1.6-8.8 2.4-11.2 4-2.4 8.8-0.8 11.2 2.4C400 122.4 415.2 176.8 416 232c0 4.8-4 8.8-8 8.8zM105.6 675.2h-10.4c-4.8 0-8-4-7.2-8.8 0-4.8 4-8 8.8-7.2 41.6 2.4 84.8-12.8 115.2-41.6 3.2-3.2 8-3.2 11.2 0 3.2 3.2 3.2 8 0 11.2-32 29.6-75.2 46.4-117.6 46.4zM648.8 1020c-66.4 0-120-58.4-120-130.4V134.4c0-72 53.6-130.4 120-130.4 62.4 0 113.6 52 120 118.4 8.8-2.4 17.6-3.2 27.2-3.2 61.6 0 112.8 50.4 119.2 116 59.2 8 104.8 63.2 104.8 129.6 0 26.4-7.2 52-20.8 73.6 13.6 21.6 20.8 47.2 20.8 73.6 0 26.4-7.2 52.8-21.6 74.4 13.6 21.6 21.6 48 21.6 74.4 0 66.4-45.6 121.6-104.8 129.6-7.2 64.8-57.6 116-119.2 116-9.6 0-18.4-0.8-27.2-3.2-6.4 64.8-57.6 116.8-120 116.8z m0-984C600 36 560 80 560 134.4v754.4c0 54.4 39.2 98.4 88 98.4s88-44 88-98.4c0-3.2 0-6.4-0.8-8.8-0.8-5.6 2.4-11.2 7.2-14.4 4.8-3.2 11.2-4 16-0.8 11.2 5.6 23.2 8.8 36 8.8 48.8 0 88-44 88-98.4 0-8.8 7.2-16 16-16 48.8 0 88-44 88-98.4 0-24-8-46.4-21.6-64.8-4.8-5.6-4.8-13.6 0-19.2 13.6-17.6 21.6-40.8 21.6-64.8 0-23.2-7.2-45.6-20.8-64-4-5.6-4-13.6 0-19.2 13.6-17.6 20.8-40.8 20.8-64 0-54.4-39.2-98.4-88-98.4-8.8 0-16-7.2-16-16 0-54.4-39.2-98.4-88-98.4-12 0-24.8 3.2-36 8.8-4.8 2.4-11.2 2.4-16-0.8-4.8-3.2-7.2-8.8-7.2-14.4 0-3.2 0.8-6.4 0.8-8.8 0.8-56.8-38.4-100.8-87.2-100.8zM751.2 888.8c-2.4 0-4-0.8-5.6-2.4-26.4-28-33.6-65.6-39.2-108l-5.6-40c-0.8-4 2.4-8.8 7.2-8.8 4-0.8 8.8 2.4 8.8 7.2l5.6 40c5.6 40 12 74.4 35.2 99.2 3.2 3.2 3.2 8 0 11.2-3.2 0.8-4.8 1.6-6.4 1.6zM903.2 785.6c-2.4 0-4.8-0.8-6.4-3.2-20.8-27.2-55.2-61.6-100.8-72.8-12.8-3.2-25.6-4-38.4-4.8-16.8-1.6-34.4-2.4-52 0-18.4 2.4-33.6 8.8-44.8 18.4-3.2 3.2-8 2.4-11.2-0.8-3.2-3.2-2.4-8 0.8-11.2 13.6-12 31.2-19.2 52.8-22.4 18.4-2.4 37.6-1.6 55.2 0 12.8 0.8 27.2 2.4 40.8 5.6 39.2 9.6 77.6 36.8 109.6 78.4 2.4 3.2 2.4 8.8-1.6 11.2-0.8 1.6-2.4 1.6-4 1.6zM939.2 593.6c-16.8 0-34.4-1.6-50.4-6.4-26.4-7.2-48.8-22.4-71.2-36-11.2-7.2-23.2-15.2-35.2-21.6-4-2.4-5.6-7.2-3.2-11.2 2.4-4 7.2-5.6 11.2-3.2 12.8 6.4 24.8 14.4 36 21.6 21.6 14.4 42.4 28 66.4 34.4 28 8 57.6 5.6 86.4 3.2 4 0 8 3.2 8.8 7.2 0 4.8-3.2 8-7.2 8.8-13.6 2.4-28 3.2-41.6 3.2zM681.6 510.4c-1.6 0-4-0.8-4.8-1.6-3.2-3.2-4-8-0.8-11.2 18.4-21.6 43.2-36 65.6-47.2 16-8 36.8-18.4 58.4-23.2 23.2-5.6 46.4-5.6 68.8-5.6 36.8 0.8 74.4 3.2 111.2 8 4 0.8 7.2 4.8 7.2 8.8-0.8 4-4.8 7.2-8.8 7.2-36-4.8-72.8-8-109.6-8-20.8 0-43.2 0-64.8 4.8-20.8 4.8-39.2 13.6-55.2 21.6-20.8 10.4-44 24-60.8 44-2.4 0.8-4.8 2.4-6.4 2.4zM705.6 322.4c-6.4 0-12 0-18.4-0.8-4.8 0-8-4-8-8 0-4.8 4-8 8-8 44 2.4 88-3.2 130.4-16 17.6-5.6 31.2-11.2 42.4-17.6 12.8-8 24.8-17.6 33.6-29.6 2.4-3.2 8-4 11.2-1.6 3.2 2.4 4 8 1.6 11.2-10.4 13.6-23.2 24.8-38.4 33.6-12.8 7.2-26.4 13.6-45.6 19.2-38.4 12-77.6 17.6-116.8 17.6zM720 274.4c-4.8 0-8-4-8-8 1.6-37.6 10.4-75.2 25.6-108.8l0.8-2.4c2.4-5.6 4.8-11.2 5.6-16 0.8-4 4.8-7.2 9.6-6.4 4 0.8 7.2 4.8 6.4 9.6-1.6 7.2-4 13.6-7.2 20l-0.8 1.6c-14.4 32-23.2 68-24 103.2 0 4-4 7.2-8 7.2zM629.6 551.2c-4 0-7.2-3.2-8-7.2-4.8-44.8 7.2-91.2 33.6-127.2 26.4-36 67.2-61.6 111.2-70.4 4-0.8 8.8 2.4 9.6 6.4s-2.4 8.8-6.4 9.6c-40 8-76.8 31.2-100.8 64s-35.2 75.2-30.4 116c0.8 4-2.4 8-7.2 8.8h-1.6zM594.4 788.8h-1.6c-4-0.8-7.2-5.6-5.6-9.6 4-17.6 8.8-35.2 12.8-52.8 6.4-24 12.8-45.6 25.6-64.8 20.8-28.8 56-44 84.8-56l23.2-9.6c4-1.6 8.8 0 10.4 4 1.6 4 0 8.8-4 10.4l-23.2 9.6c-28 12-59.2 24.8-77.6 50.4-12 16-17.6 36-23.2 59.2-4.8 17.6-8.8 34.4-12.8 52-1.6 4.8-4.8 7.2-8.8 7.2zM616 240.8c-4.8 0-8-4-8-8 0.8-55.2 16-109.6 44.8-156.8 2.4-4 7.2-5.6 11.2-3.2 4 2.4 4.8 7.2 2.4 11.2-27.2 44.8-41.6 96-42.4 148.8 0 4-3.2 8-8 8zM918.4 675.2c-42.4 0-85.6-16.8-116.8-46.4-3.2-3.2-3.2-8 0-11.2 3.2-3.2 8-3.2 11.2 0 30.4 28.8 73.6 44 115.2 41.6 4.8 0 8 3.2 8.8 7.2 0 4.8-3.2 8-7.2 8.8h-11.2z" /></svg>