<?xml version="1.0" standalone="no"?><!DOCTYPE svg PUBLIC "-//W3C//DTD SVG 1.1//EN" "http://www.w3.org/Graphics/SVG/1.1/DTD/svg11.dtd"><svg class="icon" width="200px" height="200.00px" viewBox="0 0 1024 1024" version="1.1" xmlns="http://www.w3.org/2000/svg"><path d="M513.877333 915.456A400.725333 400.725333 0 0 1 143.872 671.573333 114.858667 114.858667 0 0 1 113.322667 472.746667a402.602667 402.602667 0 0 1 800.768-2.730667 114.858667 114.858667 0 0 1-29.354667 199.509333 400.213333 400.213333 0 0 1-370.858667 245.930667z m0-757.077333A355.328 355.328 0 0 0 160.426667 487.765333a23.722667 23.722667 0 0 1-11.434667 18.773334 66.730667 66.730667 0 0 0 18.602667 122.026666 24.234667 24.234667 0 0 1 17.066666 14.506667 354.304 354.304 0 0 0 659.797334-1.877333 24.405333 24.405333 0 0 1 17.066666-14.677334 66.730667 66.730667 0 0 0 17.92-122.368 23.722667 23.722667 0 0 1-11.605333-18.773333A356.010667 356.010667 0 0 0 513.877333 158.378667z"  /><path d="M406.869333 514.56m-35.328 0a35.328 35.328 0 1 0 70.656 0 35.328 35.328 0 1 0-70.656 0Z"  /><path d="M620.885333 514.56m-35.328 0a35.328 35.328 0 1 0 70.656 0 35.328 35.328 0 1 0-70.656 0Z"  /><path d="M509.781333 719.36a179.882667 179.882667 0 0 1-128.512-60.074667 24.064 24.064 0 1 1 37.034667-30.890666 132.266667 132.266667 0 0 0 91.477333 42.666666 162.133333 162.133333 0 0 0 101.034667-44.202666 24.064 24.064 0 1 1 34.133333 34.133333 210.090667 210.090667 0 0 1-135.168 58.368z"  /><path d="M596.138667 343.552a179.882667 179.882667 0 0 1-67.072-12.970667 24.064 24.064 0 0 1 19.626666-44.032 121.514667 121.514667 0 0 0 94.890667-2.218666c46.08-24.234667 62.805333-82.090667 62.976-82.602667a24.064 24.064 0 0 1 46.421333 12.8c0 3.242667-22.186667 78.336-86.869333 112.298667a147.114667 147.114667 0 0 1-69.973333 16.725333z" opacity=".6" /></svg>