<?xml version="1.0" standalone="no"?><!DOCTYPE svg PUBLIC "-//W3C//DTD SVG 1.1//EN" "http://www.w3.org/Graphics/SVG/1.1/DTD/svg11.dtd"><svg class="icon" width="200px" height="200.00px" viewBox="0 0 1024 1024" version="1.1" xmlns="http://www.w3.org/2000/svg"><path fill="#333333" d="M490.4 1020c-48 0-84.8-11.2-112-34.4-30.4-25.6-45.6-64-57.6-94.4-3.2-8 0.8-17.6 8.8-20.8 8-3.2 17.6 0.8 20.8 8.8 11.2 28.8 24.8 61.6 48.8 81.6 24.8 20.8 62.4 29.6 113.6 25.6 41.6-3.2 96.8-15.2 124-55.2 23.2-34.4 19.2-78.4 16-125.6-1.6-16.8-2.4-33.6-2.4-50.4 0-52.8 12.8-105.6 38.4-152 13.6-24 30.4-46.4 46.4-68.8 23.2-31.2 44.8-60.8 57.6-94.4 20.8-56.8 13.6-121.6 2.4-183.2-8.8-49.6-20.8-106.4-55.2-148-32-36.8-80.8-62.4-136-70.4-47.2-6.4-99.2-0.8-159.2 16.8C368 78.4 310.4 113.6 274.4 160c-47.2 61.6-64.8 148.8-50.4 260.8 0.8 8.8-4.8 16.8-13.6 17.6-8.8 0.8-16.8-4.8-17.6-13.6-15.2-120.8 4-216 56.8-284 40-52 103.2-91.2 186.4-116C500 5.6 556 0 608 7.2 671.2 16 728 45.6 763.2 89.6c39.2 48 52 109.6 61.6 163.2 12 66.4 19.2 136-4 200-14.4 38.4-38.4 71.2-61.6 102.4-15.2 20.8-31.2 41.6-44 64.8-23.2 41.6-35.2 88.8-34.4 136 0 15.2 1.6 31.2 2.4 48 4 50.4 8 101.6-20.8 145.6-33.6 51.2-99.2 66.4-148 69.6-8 0.8-16 0.8-24 0.8zM431.2 768.8c-5.6 0-12-1.6-17.6-4-17.6-7.2-33.6-24-40.8-44-13.6-34.4-9.6-72.8-6.4-106.4 0.8-4 4-8 8.8-7.2 4 0.8 8 4 7.2 8.8-3.2 32-6.4 68 5.6 99.2 5.6 15.2 18.4 29.6 32 35.2 8 3.2 16 3.2 22.4 0 16-7.2 20.8-28.8 20.8-46.4 0-7.2-0.8-13.6-1.6-21.6-1.6-14.4-3.2-28.8-0.8-43.2 4.8-26.4 22.4-46.4 39.2-66.4 10.4-12 20.8-24 28-37.6 11.2-20.8 16-47.2 15.2-82.4 0-15.2-1.6-32-11.2-44-8-10.4-19.2-13.6-27.2-14.4-16.8-1.6-36 4-48.8 15.2-4 3.2-7.2 6.4-11.2 10.4-12 11.2-24.8 24-43.2 25.6-24.8 1.6-46.4-17.6-62.4-58.4-1.6-4 0-8.8 4-10.4 4-1.6 8.8 0 10.4 4 13.6 33.6 29.6 49.6 46.4 48 12.8-0.8 22.4-10.4 33.6-20.8 4-4 8-7.2 12-10.4 16.8-13.6 40-20.8 60.8-19.2 16 1.6 29.6 8.8 38.4 20.8 12 15.2 13.6 36 14.4 53.6 0.8 38.4-4.8 66.4-17.6 89.6-8 15.2-19.2 28-29.6 40-16 18.4-31.2 36.8-35.2 58.4-2.4 12-0.8 24.8 0.8 38.4 0.8 7.2 1.6 15.2 1.6 22.4 0.8 22.4-6.4 51.2-29.6 61.6-7.2 4-12.8 5.6-18.4 5.6z" /></svg>