<?xml version="1.0" standalone="no"?><!DOCTYPE svg PUBLIC "-//W3C//DTD SVG 1.1//EN" "http://www.w3.org/Graphics/SVG/1.1/DTD/svg11.dtd"><svg class="icon" width="200px" height="200.00px" viewBox="0 0 1024 1024" version="1.1" xmlns="http://www.w3.org/2000/svg"><path fill="#333333" d="M512 984.8c-3.2 0-6.4-0.8-9.6-3.2-15.2-11.2-376-272.8-478.4-556.8C-33.6 266.4 40 136 139.2 76.8c90.4-53.6 240.8-65.6 372.8 72 132-138.4 282.4-126.4 372.8-72C984 136 1057.6 266.4 1000 424.8c-102.4 284-464 545.6-479.2 556.8-2.4 2.4-5.6 3.2-8.8 3.2zM277.6 71.2c-46.4 0-88.8 13.6-122.4 32.8C68 156.8 2.4 272 53.6 413.6 144 664 454.4 905.6 512 948.8c57.6-43.2 368-285.6 458.4-535.2 51.2-141.6-14.4-257.6-101.6-309.6-83.2-49.6-223.2-58.4-344.8 79.2-6.4 7.2-17.6 7.2-24 0-72.8-81.6-152.8-112-222.4-112zM468 776h-1.6c-3.2-0.8-6.4-3.2-6.4-6.4L400 368.8 302.4 541.6c-1.6 2.4-4 4-7.2 4H96c-4.8 0-8-3.2-8-8s3.2-8 8-8h194.4l106.4-188.8c1.6-3.2 4.8-4.8 8.8-4 3.2 0.8 5.6 3.2 6.4 6.4L472 742.4l92.8-177.6c1.6-2.4 4-4 7.2-4h336c4.8 0 8 3.2 8 8s-3.2 8-8 8H576.8L474.4 771.2c-0.8 3.2-4 4.8-6.4 4.8z" /></svg>