<?xml version="1.0" standalone="no"?><!DOCTYPE svg PUBLIC "-//W3C//DTD SVG 1.1//EN" "http://www.w3.org/Graphics/SVG/1.1/DTD/svg11.dtd"><svg class="icon" width="200px" height="200.00px" viewBox="0 0 1024 1024" version="1.1" xmlns="http://www.w3.org/2000/svg"><path fill="#333333" d="M763.2 784.8c-54.4 0-107.2-24-137.6-65.6-40-53.6-38.4-132.8 4.8-180 8.8-9.6 19.2-17.6 28.8-25.6 10.4-8 20-16 27.2-24.8 31.2-36.8 24-102.4-14.4-140-7.2-6.4-14.4-12.8-23.2-19.2-8-6.4-16-12-23.2-19.2-54.4-51.2-71.2-137.6-38.4-205.6C620 36.8 696.8-4 771.2 6.4c43.2 6.4 89.6 26.4 127.2 56 36.8 28.8 67.2 65.6 89.6 108.8 26.4 52 30.4 111.2 32 152 2.4 92-11.2 183.2-40.8 270.4-12 35.2-23.2 60.8-36.8 83.2-34.4 55.2-89.6 95.2-147.2 105.6-10.4 1.6-21.6 2.4-32 2.4z m-52-276c-9.6 12-20.8 20.8-32 29.6-8.8 7.2-17.6 14.4-24.8 22.4-32.8 36-33.6 98.4-3.2 139.2 29.6 40 85.6 60 138.4 50.4 49.6-8.8 96-43.2 125.6-91.2 12.8-20 23.2-44 33.6-76.8 28-84 40.8-171.2 39.2-260-1.6-60-10.4-102.4-28-138.4-20-40-47.2-72.8-80.8-98.4-33.6-26.4-74.4-44-112.8-49.6-60-7.2-124.8 27.2-150.4 82.4-26.4 54.4-12.8 127.2 31.2 168 6.4 6.4 13.6 11.2 20.8 17.6 8.8 6.4 17.6 13.6 25.6 21.6 51.2 49.6 59.2 133.6 17.6 183.2zM260.8 784.8c-10.4 0-21.6-0.8-32-3.2-58.4-10.4-112.8-50.4-147.2-105.6-13.6-22.4-25.6-48-36.8-83.2C16 505.6 2.4 414.4 4 322.4c0.8-40 5.6-100 32-152 22.4-44 52.8-80.8 89.6-108.8C163.2 32 210.4 12 252.8 5.6c74.4-10.4 152 31.2 184 98.4 32.8 68 16 154.4-38.4 205.6-7.2 7.2-15.2 13.6-23.2 19.2-8 6.4-16 12.8-23.2 19.2-38.4 37.6-45.6 103.2-14.4 140 8 8.8 17.6 16.8 27.2 24.8 9.6 8 20 16 28.8 25.6 43.2 47.2 44.8 126.4 4.8 180-30.4 42.4-83.2 66.4-137.6 66.4z m15.2-748.8c-6.4 0-12 0.8-18.4 1.6-37.6 5.6-78.4 23.2-112.8 49.6-32.8 24.8-60 58.4-80 97.6-18.4 35.2-27.2 78.4-28 138.4-2.4 88.8 11.2 176 39.2 260 10.4 32.8 20.8 56 33.6 76.8 29.6 48 76.8 81.6 125.6 91.2 52.8 9.6 108.8-10.4 138.4-50.4 31.2-41.6 29.6-104-3.2-139.2-7.2-8-16-15.2-24.8-22.4-11.2-8.8-22.4-17.6-32-29.6C272 460 280 376 330.4 326.4c8-8 16.8-15.2 25.6-21.6 7.2-5.6 14.4-11.2 20.8-17.6 44-41.6 57.6-113.6 31.2-168-23.2-50.4-78.4-83.2-132-83.2zM463.2 1020c-8.8 0-16-7.2-16-16v-488c-7.2-108.8-52-139.2-104-174.4-7.2-4.8-8.8-15.2-4-22.4 4.8-7.2 15.2-8.8 22.4-4 53.6 36.8 108.8 75.2 117.6 199.2v489.6c0 8.8-7.2 16-16 16zM552 1020c-8.8 0-16-7.2-16-16V515.2v-0.8C544 389.6 599.2 352 656.8 312l2.4-1.6c7.2-4.8 17.6-3.2 22.4 4 4.8 7.2 3.2 17.6-4 22.4l-2.4 1.6c-56 38.4-100 68.8-107.2 177.6v488c0 8.8-7.2 16-16 16zM604.8 270.4H420c-8.8 0-16-7.2-16-16s7.2-16 16-16h184.8c8.8 0 16 7.2 16 16s-7.2 16-16 16z" /></svg>