<?xml version="1.0" standalone="no"?><!DOCTYPE svg PUBLIC "-//W3C//DTD SVG 1.1//EN" "http://www.w3.org/Graphics/SVG/1.1/DTD/svg11.dtd"><svg class="icon" width="200px" height="200.00px" viewBox="0 0 1024 1024" version="1.1" xmlns="http://www.w3.org/2000/svg"><path fill="#333333" d="M384 572.8c-8.8 0-15.2-6.4-16-15.2-0.8-8.8 6.4-16 15.2-16.8 103.2-5.6 112-100 112.8-108V20c0-8.8 7.2-16 16-16s16 7.2 16 16V434.4c0 1.6-8.8 130.4-143.2 138.4H384zM640 572.8h-0.8C504.8 565.6 496 436 496 434.4c-0.8-8.8 6.4-16 15.2-16.8 8.8-0.8 16 6.4 16.8 15.2 0 4 7.2 102.4 112.8 108 8.8 0.8 15.2 8 15.2 16.8-0.8 8.8-8 15.2-16 15.2zM92.8 1020c-38.4 0-72.8-24.8-84.8-62.4-3.2-8.8-4-16-4-23.2-1.6-341.6 102.4-496.8 215.2-613.6 63.2-65.6 116-48.8 141.6-32.8 24 15.2 39.2 42.4 39.2 72v540.8c0 6.4 0 13.6-3.2 20.8-14.4 36.8-59.2 53.6-64.8 55.2h-0.8c-56.8 16-154.4 31.2-225.6 41.6-4 1.6-8.8 1.6-12.8 1.6zM312 304.8c-21.6 0-44.8 12.8-69.6 37.6-72.8 75.2-208 216-206.4 591.2 0 4 0.8 8 2.4 13.6 8.8 26.4 34.4 43.2 62.4 39.2 57.6-8 163.2-24.8 220.8-40.8 10.4-4 37.6-17.6 44.8-36.8 0.8-2.4 0.8-6.4 0.8-9.6L368 360c0-18.4-9.6-36-24-44.8-10.4-7.2-20.8-10.4-32-10.4zM931.2 1020c-4 0-8.8 0-12.8-0.8-72-10.4-168.8-25.6-225.6-41.6h-0.8c-4.8-1.6-50.4-19.2-64.8-55.2-3.2-7.2-3.2-14.4-3.2-20.8V360c0-29.6 15.2-57.6 39.2-72 25.6-16 78.4-32.8 141.6 32.8 112.8 116.8 216.8 272 215.2 613.6 0 7.2-1.6 14.4-4 23.2-12 37.6-46.4 62.4-84.8 62.4z m-229.6-73.6c58.4 16 163.2 32.8 220.8 40.8 28 4 53.6-12.8 62.4-39.2 1.6-5.6 2.4-10.4 2.4-14.4 1.6-376-133.6-516-206.4-591.2-36.8-37.6-70.4-47.2-101.6-28-15.2 9.6-24 26.4-24 44.8v540.8c0 3.2 0 7.2 0.8 9.6 8 19.2 35.2 32.8 45.6 36.8zM512 873.6c-44.8 0-90.4-7.2-132.8-21.6-6.4-2.4-11.2-8-11.2-15.2v-72.8c0-5.6 2.4-10.4 7.2-13.6 4.8-3.2 10.4-3.2 15.2-1.6 77.6 32.8 165.6 32.8 243.2 0 4.8-2.4 10.4-1.6 15.2 1.6 4.8 3.2 7.2 8 7.2 13.6v72.8c0 7.2-4 12.8-11.2 15.2-42.4 14.4-88 21.6-132.8 21.6z m-112-48.8c72.8 22.4 151.2 22.4 224 0v-37.6c-72 24.8-151.2 24.8-224 0v37.6z" /></svg>