<?xml version="1.0" standalone="no"?><!DOCTYPE svg PUBLIC "-//W3C//DTD SVG 1.1//EN" "http://www.w3.org/Graphics/SVG/1.1/DTD/svg11.dtd"><svg class="icon" width="200px" height="200.00px" viewBox="0 0 1024 1024" version="1.1" xmlns="http://www.w3.org/2000/svg"><path fill="#333333" d="M132 1020h-112c-8.8 0-16-7.2-16-16v-169.6c0-40.8 17.6-79.2 48.8-105.6 15.2-12.8 33.6-24 52-33.6 42.4-20.8 89.6-25.6 134.4-28.8 41.6-2.4 84-3.2 126.4-1.6h5.6c28 0.8 57.6 2.4 82.4-8.8 15.2-6.4 29.6-18.4 46.4-36 37.6-41.6 72.8-110.4 47.2-168.8-5.6-12.8-13.6-24.8-22.4-37.6L439.2 288c-24-34.4-40.8-59.2-43.2-115.2V20c0-8.8 7.2-16 16-16h116.8c8.8 0 16 7.2 16 16v80c-4.8 41.6-0.8 73.6 13.6 97.6 8.8 15.2 24 25.6 40 26.4 20 1.6 32.8-9.6 52-27.2 6.4-6.4 13.6-13.6 21.6-19.2 27.2-20.8 63.2-31.2 109.6-32 30.4-0.8 53.6 3.2 73.6 11.2 41.6 16.8 68.8 54.4 85.6 81.6 64.8 103.2 92 231.2 73.6 351.2-4.8 32.8-13.6 68-25.6 105.6-39.2 120.8-100 203.2-179.2 244.8-38.4 20-84 32-140.8 36.8-120 10.4-230.4-15.2-312-72.8-8.8-6.4-17.6-12.8-25.6-19.2-24-18.4-47.2-36.8-75.2-44-12-3.2-24-4-35.2-1.6-40 8.8-51.2 48.8-59.2 92-2.4 12.8-4.8 24.8-7.2 37.6l-7.2 38.4c-0.8 7.2-7.2 12.8-15.2 12.8z m-96-32h83.2c1.6-8 3.2-16.8 4.8-24.8l7.2-38.4c8-38.4 20-103.2 84-116.8 16-3.2 32.8-2.4 50.4 1.6 34.4 9.6 60.8 29.6 86.4 49.6 8 6.4 16 12.8 24.8 18.4 75.2 53.6 178.4 77.6 290.4 67.2 52-4.8 94.4-15.2 128.8-33.6 72-37.6 127.2-113.6 164-226.4 12-36 20-68.8 24.8-100.8 16.8-112.8-8.8-232.8-69.6-329.6-14.4-23.2-37.6-55.2-70.4-68.8-16-6.4-36-9.6-60.8-8.8-39.2 0.8-68.8 8.8-90.4 25.6-6.4 4.8-12.8 10.4-19.2 16.8-19.2 18.4-41.6 40-76.8 36-26.4-2.4-50.4-18.4-64-42.4-17.6-30.4-24-68.8-18.4-116.8V36H428v136.8c1.6 45.6 15.2 64.8 37.6 97.6L552 396c8.8 13.6 18.4 27.2 24.8 42.4 31.2 72.8-7.2 152.8-52.8 203.2-12.8 13.6-32 33.6-57.6 44-31.2 13.6-64 12-96 11.2h-5.6c-40.8-0.8-82.4-0.8-123.2 1.6-41.6 2.4-85.6 7.2-122.4 25.6-16.8 8-32.8 18.4-45.6 29.6-23.2 20-36.8 49.6-36.8 80.8v153.6zM772 877.6c-3.2 0-5.6-1.6-7.2-4-2.4-4-0.8-8.8 3.2-10.4 58.4-30.4 104.8-96 136-193.6 11.2-33.6 18.4-63.2 22.4-91.2 15.2-100-7.2-206.4-61.6-292-2.4-4-1.6-8.8 2.4-11.2 4-2.4 8.8-1.6 11.2 2.4 56 88.8 79.2 199.2 64 302.4-4 28.8-12 60-23.2 94.4-32.8 102.4-81.6 170.4-144 203.2h-3.2z" /></svg>