<?xml version="1.0" standalone="no"?><!DOCTYPE svg PUBLIC "-//W3C//DTD SVG 1.1//EN" "http://www.w3.org/Graphics/SVG/1.1/DTD/svg11.dtd"><svg class="icon" width="200px" height="200.00px" viewBox="0 0 1024 1024" version="1.1" xmlns="http://www.w3.org/2000/svg"><path fill="#333333" d="M710.4 1020c-30.4 0-56.8-19.2-65.6-48L513.6 542.4c0-0.8 0-0.8-0.8-0.8s-0.8 0-0.8 0.8l-131.2 428.8c-8.8 28.8-35.2 48.8-65.6 48.8-28 0-53.6-16.8-64-42.4-20.8-52-56.8-168.8-62.4-362.4-0.8-27.2-8-55.2-20-80.8C111.2 415.2 0 128.8 188.8 28 242.4-0.8 310.4-2.4 375.2 24c36 14.4 157.6 41.6 293.6-6.4C718.4 0 767.2-0.8 809.6 16c55.2 21.6 92.8 58.4 113.6 109.6 50.4 127.2-20.8 310.4-67.2 408-12.8 26.4-19.2 53.6-20 81.6-4.8 193.6-40.8 310.4-62.4 362.4-10.4 25.6-35.2 42.4-63.2 42.4zM512 509.6c14.4 0 27.2 9.6 32 23.2l131.2 428.8c4.8 15.2 19.2 25.6 35.2 25.6 15.2 0 28.8-8.8 34.4-22.4 20-50.4 55.2-162.4 60-351.2 0.8-32 8.8-64 23.2-94.4 36-75.2 114.4-262.4 66.4-382.4-16.8-43.2-48-73.6-95.2-91.2-45.6-16.8-90.4-8-120 2.4-144.8 51.2-277.6 21.6-316 5.6-56-22.4-114.4-21.6-159.2 2.4-164.8 88-60 353.6-7.2 464 14.4 30.4 22.4 61.6 23.2 93.6 4.8 188.8 39.2 301.6 60 351.2 5.6 13.6 19.2 22.4 34.4 22.4 16 0 30.4-10.4 35.2-25.6L480 533.6c4.8-14.4 17.6-24 32-24zM784 507.2c-0.8 0-2.4 0-3.2-0.8-4-1.6-5.6-6.4-4-10.4 68-142.4 92-268.8 64.8-337.6-11.2-28.8-31.2-47.2-63.2-60-10.4-4-21.6-5.6-33.6-5.6-4.8 0-8-3.2-8-8s3.2-8 8-8c14.4 0 27.2 2.4 40 7.2 36.8 14.4 59.2 36 72.8 68.8 28.8 73.6 4.8 204.8-64.8 350.4-3.2 2.4-5.6 4-8.8 4z" /></svg>