<?xml version="1.0" standalone="no"?><!DOCTYPE svg PUBLIC "-//W3C//DTD SVG 1.1//EN" "http://www.w3.org/Graphics/SVG/1.1/DTD/svg11.dtd"><svg class="icon" width="200px" height="200.00px" viewBox="0 0 1024 1024" version="1.1" xmlns="http://www.w3.org/2000/svg"><path fill="#333333" d="M748 1020H396.8c-4.8 0-8.8-1.6-12-5.6-3.2-3.2-4.8-8-4-12 4-42.4 1.6-84-8.8-124.8-4-16.8-10.4-36.8-25.6-47.2-17.6-12.8-43.2-8-69.6-4-6.4 0.8-12.8 2.4-18.4 3.2-22.4 3.2-56.8 0-79.2-19.2-12-10.4-19.2-24-19.2-39.2-0.8-14.4 4.8-27.2 8.8-39.2 5.6-16 8-24 4.8-28-1.6-1.6-4-3.2-6.4-4.8-5.6-4-12-8-16.8-16.8-10.4-19.2 0.8-36.8 9.6-48.8 4-5.6 8-12 8.8-16.8 1.6-9.6-8-17.6-32.8-32-23.2-13.6-52-30.4-51.2-62.4 0.8-27.2 23.2-43.2 40.8-55.2 4-2.4 7.2-4.8 10.4-7.2 31.2-23.2 48-65.6 53.6-129.6 0.8-11.2 1.6-21.6 2.4-32.8 2.4-42.4 4.8-86.4 22.4-127.2 35.2-80 122.4-132 260-155.2 65.6-11.2 152-20.8 232 4.8 115.2 36 206.4 144.8 227.2 271.2C953.6 408 916 536 832 633.6c-4 4.8-8 9.6-12.8 14.4-14.4 16.8-28.8 32-37.6 50.4-13.6 26.4-16 58.4-19.2 88.8-6.4 70.4-12.8 144 0.8 213.6 0.8 4.8 0 9.6-3.2 13.6-2.4 3.2-7.2 5.6-12 5.6z m-333.6-32h315.2c-10.4-68-4-136.8 1.6-203.2 2.4-32 5.6-68 22.4-100 11.2-22.4 27.2-40 42.4-57.6 4-4.8 8-8.8 12-13.6 76.8-90.4 112.8-208.8 94.4-316-19.2-116-102.4-214.4-205.6-247.2-73.6-23.2-154.4-13.6-216.8-3.2-126.4 20.8-205.6 67.2-236 136-15.2 35.2-17.6 74.4-20 116l-2.4 33.6c-5.6 73.6-27.2 123.2-65.6 152.8-4 3.2-8 5.6-12 8.8-16 11.2-27.2 20-27.2 29.6 0 12 13.6 20.8 35.2 33.6 24 14.4 54.4 32 48 65.6-2.4 11.2-8.8 20.8-13.6 28.8-4 5.6-8.8 13.6-8 16 0.8 1.6 4 3.2 6.4 5.6 4 2.4 8.8 5.6 12.8 10.4 16.8 19.2 8 42.4 0.8 60.8-3.2 9.6-7.2 19.2-7.2 26.4 0 6.4 3.2 11.2 8 16 11.2 9.6 33.6 14.4 54.4 12 5.6-0.8 12-1.6 17.6-2.4 30.4-4.8 64.8-11.2 93.6 8.8 23.2 16 32 43.2 37.6 65.6 10.4 37.6 14.4 76.8 12 116.8zM551.2 1012c-4.8 0-8-3.2-8-8v-208c0-62.4-50.4-112.8-112.8-112.8H164c-4.8 0-8-3.2-8-8s3.2-8 8-8h265.6c71.2 0 128.8 57.6 128.8 128.8v208c0.8 4.8-3.2 8-7.2 8z" /></svg>