<?xml version="1.0" standalone="no"?><!DOCTYPE svg PUBLIC "-//W3C//DTD SVG 1.1//EN" "http://www.w3.org/Graphics/SVG/1.1/DTD/svg11.dtd"><svg class="icon" width="200px" height="200.00px" viewBox="0 0 1024 1024" version="1.1" xmlns="http://www.w3.org/2000/svg"><path fill="#333333" d="M926.4 477.6c-6.4 0-12-4-15.2-9.6-3.2-8 0.8-17.6 8.8-20.8 28.8-12 36.8-20.8 52-38.4 12.8-15.2 18.4-37.6 14.4-57.6-5.6-26.4-28-51.2-61.6-68.8-18.4-9.6-38.4-16-59.2-23.2-13.6-4.8-28-9.6-42.4-15.2-8-3.2-12-12.8-8.8-20.8 3.2-8 12.8-12 20.8-8.8 12.8 5.6 27.2 9.6 40 14.4 20.8 7.2 42.4 14.4 63.2 24.8 42.4 21.6 71.2 54.4 78.4 90.4 6.4 29.6-1.6 61.6-21.6 84.8-16.8 20-29.6 32.8-64 47.2-0.8 1.6-3.2 1.6-4.8 1.6zM509.6 653.6c-4 0-7.2 0-10.4-0.8-48.8-6.4-76-55.2-85.6-99.2-5.6-23.2-7.2-48-9.6-72-4.8-51.2-9.6-99.2-40.8-132.8-28-30.4-73.6-41.6-109.6-48.8h-1.6c-15.2-2.4-32.8-5.6-47.2-16.8-16.8-12.8-26.4-34.4-26.4-57.6 0.8-47.2 38.4-82.4 76-96.8 38.4-15.2 80-13.6 116.8-12.8 45.6 1.6 92 2.4 139.2 4.8 47.2-2.4 93.6-4 139.2-4.8 36.8-0.8 78.4-2.4 116.8 12.8 37.6 14.4 75.2 50.4 76 96.8 0 23.2-9.6 44.8-26.4 57.6-14.4 11.2-32 14.4-47.2 16.8h-1.6c-36 6.4-81.6 18.4-109.6 48.8-31.2 33.6-36 81.6-40.8 132.8-2.4 24-4.8 48-9.6 72-9.6 43.2-37.6 92-85.6 99.2-4 0.8-7.2 0.8-12 0.8z m-168-506.4c-26.4 0-52 1.6-76 11.2-26.4 10.4-55.2 36-55.2 67.2 0 12.8 4.8 25.6 13.6 32 8 6.4 20.8 8.8 33.6 11.2h1.6c41.6 7.2 92.8 20.8 127.2 58.4 38.4 41.6 43.2 97.6 48.8 151.2 2.4 22.4 4.8 46.4 9.6 68 7.2 31.2 26.4 69.6 59.2 74.4h12.8c32-4.8 52-42.4 59.2-74.4 4.8-21.6 7.2-44.8 9.6-68 5.6-54.4 10.4-109.6 48.8-151.2 34.4-37.6 86.4-51.2 127.2-58.4h1.6c12.8-2.4 25.6-4.8 33.6-11.2 8.8-6.4 13.6-18.4 13.6-32 0-32-28.8-57.6-55.2-67.2-32-12.8-68.8-11.2-104-10.4-45.6 1.6-92.8 2.4-139.2 4.8h-1.6c-47.2-2.4-93.6-4-139.2-4.8-10.4 0-20-0.8-29.6-0.8zM556 908.8H464c-8.8 0-16-7.2-16-16V618.4c0-6.4 4-12 9.6-14.4 5.6-2.4 12.8-1.6 17.6 3.2 8.8 8 18.4 13.6 28.8 14.4h12.8c10.4-1.6 20-6.4 28.8-14.4 4.8-4.8 11.2-5.6 17.6-3.2 5.6 2.4 9.6 8 9.6 14.4v274.4c-0.8 8.8-8 16-16.8 16z m-76-32h60V648c-6.4 2.4-12.8 4-19.2 5.6-3.2 0.8-7.2 0.8-11.2 0.8-4 0-7.2 0-10.4-0.8-6.4-0.8-12.8-2.4-19.2-5.6v228.8zM816.8 553.6c-70.4 0-125.6-39.2-125.6-88.8S746.4 376 816.8 376c70.4 0 125.6 39.2 125.6 88.8s-55.2 88.8-125.6 88.8z m0-144.8c-50.4 0-93.6 25.6-93.6 56.8s42.4 56.8 93.6 56.8c50.4 0 93.6-25.6 93.6-56.8s-43.2-56.8-93.6-56.8zM97.6 477.6c-2.4 0-4 0-6.4-0.8-35.2-14.4-47.2-27.2-64-47.2C8 405.6 0 374.4 6.4 344.8c7.2-36 36-68.8 78.4-90.4 20.8-10.4 42.4-17.6 63.2-24.8 13.6-4.8 27.2-8.8 40-14.4 8-3.2 17.6 0.8 20.8 8.8 3.2 8-0.8 17.6-8.8 20.8-14.4 5.6-28.8 10.4-42.4 15.2-20.8 7.2-40.8 13.6-59.2 23.2-33.6 16.8-56 42.4-61.6 68.8-4 20 1.6 42.4 14.4 57.6 15.2 17.6 23.2 26.4 52 38.4 8 3.2 12 12.8 8.8 20.8-1.6 4.8-8 8.8-14.4 8.8zM207.2 553.6c-70.4 0-125.6-39.2-125.6-88.8S136.8 376 207.2 376s125.6 40 125.6 89.6-55.2 88-125.6 88z m0-144.8c-50.4 0-93.6 25.6-93.6 56.8s42.4 56.8 93.6 56.8c50.4 0 93.6-25.6 93.6-56.8s-43.2-56.8-93.6-56.8z" /></svg>